<?xml version="1.0" standalone="no"?>
<!DOCTYPE svg PUBLIC "-//W3C//DTD SVG 20010904//EN"
 "http://www.w3.org/TR/2001/REC-SVG-20010904/DTD/svg10.dtd">
<svg version="1.0" xmlns="http://www.w3.org/2000/svg"
 width="260.000000pt" height="260.000000pt" viewBox="0 0 260.000000 260.000000"
 preserveAspectRatio="xMidYMid meet">
<metadata>
Created by potrace 1.11, written by Peter Selinger 2001-2013
</metadata>
<g transform="translate(0.000000,260.000000) scale(0.100000,-0.100000)"
fill="#000000" stroke="none">
<path d="M1095 2168 c-176 -27 -323 -53 -328 -57 -12 -12 -227 -545 -227 -564
0 -9 10 -22 23 -27 20 -9 391 -110 402 -110 11 0 3 -45 -40 -202 -25 -92 -42
-174 -39 -182 7 -17 46 -30 333 -106 187 -50 194 -51 211 -33 10 10 32 74 50
143 18 69 38 130 44 137 7 7 83 16 191 23 127 8 184 16 194 26 14 13 130 476
131 521 0 29 -566 483 -601 482 -13 -1 -168 -23 -344 -51z m490 -334 c105 -80
191 -153 193 -163 3 -16 -54 -240 -63 -250 -2 -2 -80 -12 -172 -22 -92 -10
-172 -20 -179 -23 -6 -2 -26 -61 -44 -131 -19 -70 -40 -129 -47 -132 -19 -8
-184 39 -190 53 -5 13 73 322 87 343 3 6 66 17 140 26 74 9 141 21 147 28 7 7
16 33 19 58 l6 45 -72 54 -73 54 -80 -3 c-112 -4 -119 -7 -146 -85 -15 -43
-29 -66 -39 -66 -8 0 -69 14 -134 31 -100 27 -118 34 -113 49 3 9 23 62 44
116 l38 99 209 31 c115 18 225 32 244 33 30 1 60 -19 225 -145z"/>
<path d="M852 908 c-12 -15 -112 -385 -112 -415 0 -11 6 -25 13 -30 17 -13
467 -133 500 -133 15 0 30 8 36 18 11 21 111 393 111 414 0 23 -28 33 -272 98
-241 64 -260 67 -276 48z m237 -199 c42 -12 79 -23 83 -25 5 -4 -28 -142 -37
-152 -4 -5 -169 39 -176 46 -10 10 31 152 44 152 6 0 45 -9 86 -21z"/>
</g>
</svg>
